# xmcd
#
# Track frame offsets: 
#        187
#        22877
#        41865
#        62795
#        81140
#        97465
#        116815
#        130945
#        149775
#        170612
#        187515
#
# Disc length: 2730 seconds
#
# Revision: 0
# Processed by: cddbd v1.5.2PL0 Copyright (c) Steve Scherf et al.
# Submitted via: ExactAudioCopy v0.95b4
#
DISCID=a00aa80b
DTITLE=Ray, Goodman and Brown - Stay
DYEAR=1992
DGENRE=R&B
TTITLE0=Inside Of You
TTITLE1=A Part Of You
TTITLE2=Happy Anniversary
TTITLE3=I'll Remember You With Love
TTITLE4=Stay
TTITLE5=Special Lady
TTITLE6=My Prayer
TTITLE7=Only You (And You Alone)
TTITLE8=Love Minus One
TTITLE9=After All
TTITLE10=How Can Love So Right (Be So Wrong)
EXTD=
EXTT0=
EXTT1=
EXTT2=
EXTT3=
EXTT4=
EXTT5=
EXTT6=
EXTT7=
EXTT8=
EXTT9=
EXTT10=
PLAYORDER=
